<?xml version="1.0" encoding="utf-8"?>
<!-- Generator: Adobe Illustrator 19.0.0, SVG Export Plug-In . SVG Version: 6.00 Build 0)  -->
<svg version="1.1" id="Camada_1" xmlns="http://www.w3.org/2000/svg" xmlns:xlink="http://www.w3.org/1999/xlink" x="0px" y="0px"
	 viewBox="0 0 100 100" style="enable-background:new 0 0 100 100;" xml:space="preserve">
<style type="text/css">
	.st0{fill:#DEDEDE;}
	.st1{fill:#686868;}
</style>
<g id="XMLID_11_">
	<g id="XMLID_33_">
		<g id="XMLID_34_">
			<circle id="XMLID_35_" class="st0" cx="50" cy="50" r="50"/>
		</g>
	</g>
</g>
<g id="XMLID_2_">
	<g id="XMLID_49_">
		<path id="XMLID_51_" class="st1" d="M50.1,47.5c7.8,0,14.1-6.3,14.1-14.1c0-7.8-6.3-14.1-14.1-14.1c-7.8,0-14.1,6.3-14.1,14.1
			C36,41.2,42.3,47.5,50.1,47.5z"/>
		<path id="XMLID_50_" class="st1" d="M48,58.8l-3.3-2.3c-0.6-0.6-0.6-1.6,0-2.2c0,0,4.2,0,5.3,0c1.1,0,5.6,0,5.6,0
			c0.6,0.6,0.6,1.6,0,2.2l-3.3,2.3c-0.4,0.4-0.5,1-0.4,1.5l4.7,14.4c0.2,0.6,0.8,1.1,1.5,1.1h18.6c0.9,0,1.6-0.8,1.5-1.6
			c-0.7-12-8.4-21.4-19-25C58.8,49,58.4,49,58,49.2c-2.4,1.2-5.1,1.8-7.9,1.8c-2.9,0-5.6-0.7-8-1.9c-0.4-0.2-0.8-0.2-1.2-0.1
			c-10.6,3.6-18.4,13-19.1,25.1c-0.1,0.9,0.6,1.6,1.5,1.6h19.3c0.7,0,1.3-0.5,1.5-1.1l4.4-14.4C48.6,59.8,48.4,59.2,48,58.8z"/>
	</g>
</g>
</svg>
